<svg width="640" height="220" viewBox="0 0 640 220" fill="none" xmlns="http://www.w3.org/2000/svg">
  <defs>
    <linearGradient id="bg" x1="0" y1="0" x2="1" y2="1">
      <stop offset="0%" stop-color="#0B3B6B"/>
      <stop offset="100%" stop-color="#1B75BC"/>
    </linearGradient>
    <linearGradient id="wave" x1="0" y1="0" x2="1" y2="0">
      <stop offset="0%" stop-color="#0F5CA3"/>
      <stop offset="100%" stop-color="#4AA3E0"/>
    </linearGradient>
    <linearGradient id="fish" x1="0" y1="0" x2="1" y2="1">
      <stop offset="0%" stop-color="#0B3B6B"/>
      <stop offset="100%" stop-color="#FFC20E"/>
    </linearGradient>
  </defs>
  <rect width="640" height="220" rx="28" fill="url(#bg)"/>
  <circle cx="130" cy="110" r="84" fill="#FFFFFF" opacity="0.12"/>
  <path d="M76 128c22 12 46 14 70 6 16-5 32-15 44-30 9-11 20-25 20-45 0-22-20-40-44-40-28 0-52 22-56 50-4 25 8 42 24 52 18 12 44 8 62-6" stroke="#FFFFFF" stroke-width="8" fill="none" opacity="0.7"/>
  <path d="M90 146c18 12 40 12 60 2s36-32 34-58c-2-23-18-40-40-42-24-2-46 16-52 38-6 20 0 42 16 60Z" fill="#0B3B6B"/>
  <path d="M120 86c18 0 32 12 32 26 0 15-14 26-32 26s-32-11-32-26c0-14 14-26 32-26Z" fill="#FFC20E"/>
  <path d="M152 110c0 8-6 14-14 14-4 0-8-2-11-5-9-10-12-20-12-27 0-6 3-11 8-14 4-2 9-3 14-3 8 0 14 6 14 14v21Z" fill="#FFFFFF" opacity="0.8"/>
  <path d="M182 76c24 12 40 34 40 60 0 30-24 56-56 56-22 0-42-12-52-30" stroke="#4AA3E0" stroke-width="10" fill="none" stroke-linecap="round" opacity="0.8"/>
  <g transform="translate(216 60)">
    <text x="0" y="36" fill="#FFFFFF" font-family="Inter, Arial, sans-serif" font-size="58" font-weight="800">KMFRI</text>
    <text x="0" y="80" fill="#D4E3F5" font-family="Inter, Arial, sans-serif" font-size="20" font-weight="600">Kenya Marine and Fisheries Research Institute</text>
    <path d="M0 111h320v16H0z" fill="#FFFFFF" opacity="0.12"/>
    <path d="M0 134h260v12H0z" fill="#FFFFFF" opacity="0.08"/>
  </g>
</svg>
